# Blender v2.83.1 OBJ File: 'skyboxcube.blend'
# www.blender.org
mtllib skyboxcube.mtl
o Cube
v 1.000000 1.000000 -1.000000
v 1.000000 -1.000000 -1.000000
v 1.000000 1.000000 1.000000
v 1.000000 -1.000000 1.000000
v -1.000000 1.000000 -1.000000
v -1.000000 -1.000000 -1.000000
v -1.000000 1.000000 1.000000
v -1.000000 -1.000000 1.000000
vt 0.333384 0.749957
vt 0.666660 0.749957
vt 0.666660 0.999913
vt 0.333384 0.999913
vt 0.666660 0.500000
vt 0.999935 0.500000
vt 0.999935 0.749957
vt 0.666660 0.250043
vt 0.333384 0.250043
vt 0.333384 0.000087
vt 0.666660 0.000087
vt 0.333384 0.500000
vt 0.000108 0.500000
vt 0.000108 0.749957
vn -0.5774 -0.5774 0.5774
vn -0.5774 -0.5774 -0.5774
vn 0.5774 -0.5774 -0.5774
vn 0.5774 -0.5774 0.5774
vn -0.5774 0.5774 -0.5774
vn 0.5774 0.5774 -0.5774
vn 0.5774 0.5774 0.5774
vn -0.5774 0.5774 0.5774
usemtl Material
s 1
f 1/1/1 3/2/2 7/3/3 5/4/4
f 4/5/5 8/6/6 7/7/3 3/2/2
f 8/8/6 6/9/7 5/10/4 7/11/3
f 6/9/7 8/8/6 4/5/5 2/12/8
f 2/12/8 4/5/5 3/2/2 1/1/1
f 6/13/7 2/12/8 1/1/1 5/14/4
