# Blender v2.83.1 OBJ File: 'skyboxcube.blend'
# www.blender.org
mtllib skyboxcube.mtl
o Cube
v 1.000000 1.000000 -1.000000
v 1.000000 -1.000000 -1.000000
v 1.000000 1.000000 1.000000
v 1.000000 -1.000000 1.000000
v -1.000000 1.000000 -1.000000
v -1.000000 -1.000000 -1.000000
v -1.000000 1.000000 1.000000
v -1.000000 -1.000000 1.000000
vt 0.375043 0.749957
vt 0.625000 0.749957
vt 0.625000 0.999913
vt 0.375043 0.999913
vt 0.625000 0.500000
vt 0.874957 0.500000
vt 0.874957 0.749957
vt 0.625000 0.250043
vt 0.375044 0.250043
vt 0.375044 0.000087
vt 0.625000 0.000087
vt 0.375043 0.500000
vt 0.125087 0.500000
vt 0.125087 0.749957
vn 0.0000 -1.0000 0.0000
vn 0.0000 0.0000 -1.0000
vn 1.0000 0.0000 0.0000
vn 0.0000 1.0000 0.0000
vn -1.0000 0.0000 0.0000
vn 0.0000 0.0000 1.0000
usemtl Material
s off
f 1/1/1 3/2/1 7/3/1 5/4/1
f 4/5/2 8/6/2 7/7/2 3/2/2
f 8/8/3 6/9/3 5/10/3 7/11/3
f 6/9/4 8/8/4 4/5/4 2/12/4
f 2/12/5 4/5/5 3/2/5 1/1/5
f 6/13/6 2/12/6 1/1/6 5/14/6
